<?xml version="1.0" encoding="utf-8" ?>
<svg xmlns="http://www.w3.org/2000/svg" xmlns:xlink="http://www.w3.org/1999/xlink" width="512" height="512">
	<path fill="transparent" transform="scale(0.666667 0.666667)" d="M0 0.1875C1.70241 -0.185587 3.61693 -0.00979729 5.35479 -0.0090068C8.44963 -0.00759905 11.5445 -0.00845752 14.6393 -0.00881649C26.6055 -0.0102045 38.5716 -0.00977825 50.5378 -0.00976663C98.2915 -0.00972023 146.045 -0.00952629 193.799 -0.0102393C385.199 -0.0130972 576.6 -0.00755292 768 0L768 767.812C766.298 768.186 764.383 768.01 762.645 768.009C759.55 768.008 756.456 768.008 753.361 768.009C741.395 768.01 729.428 768.01 717.462 768.01C669.708 768.01 621.955 768.01 574.201 768.01C382.801 768.013 191.4 768.008 -0 768L0 0.1875Z"/>
	<path fill="#010918" transform="scale(0.666667 0.666667)" d="M335.086 73.6602C340.818 73.3012 346.66 73.4401 352.404 73.4326C406.489 73.3621 462.86 88.1278 505.312 122.771C512.699 128.799 519.73 135.233 525.658 142.731C527.623 145.217 529.368 147.854 531.063 150.527C531.348 150.977 532.347 152.948 532.725 153.169C532.999 153.33 534.759 153.265 535.138 153.283C538.246 153.434 544.323 153.004 546.814 154.601C548.131 155.446 548.23 156.871 548.314 158.308C548.661 164.178 547.255 170.072 547.024 175.923C546.687 184.452 548.968 193.924 550.79 202.239C559.4 205.459 567.325 210.874 573.547 217.619C591.396 236.967 598.533 266.71 597.329 292.557C596.502 310.311 593.826 327.943 579.923 340.502C572.249 347.434 562.529 350.092 552.397 349.561C550.833 351.18 549.592 355.479 548.482 357.62C546.418 361.604 543.987 365.443 541.001 368.803C533.552 377.186 523.773 378.156 513.245 378.741C508.248 384.193 501.175 385.856 494.08 386.712C491.572 394.838 488.793 403.086 481.254 407.956C477.277 410.525 472.07 411.851 467.517 412.935C465.667 413.376 463.816 413.814 461.969 414.269C461.534 414.376 460.373 414.516 460.021 414.749C459.307 415.222 458.206 417.445 457.746 418.213C456.117 420.934 454.487 423.649 452.581 426.189C449.54 430.242 445.693 433.513 441.08 435.623C431.18 440.151 418.686 441.115 408 442.56C395.392 444.265 382.72 445.661 370.132 447.487C369.32 448.388 369.509 448.701 369.505 449.882C369.788 450.123 369.912 450.269 370.312 450.385C371.351 450.686 372.943 450.592 374.041 450.662C376.636 450.827 379.226 451.007 381.817 451.222C391.598 452.032 401.713 452.831 411.281 455.041C416.567 456.263 421.849 458.105 426.42 461.073C436.911 467.885 438.775 478.636 440.9 490.151C442.302 497.747 443.344 505.449 444.891 513.008C452.17 511.935 459.119 512.807 465.866 515.719C473.591 519.054 479.604 524.77 485.075 531.031C495.085 542.485 501.779 554.237 507.411 568.302C512.099 553.239 516.299 537.947 520.616 522.768C524.031 510.762 527.685 498.793 530.956 486.75C533.856 476.074 536.452 465.314 539.413 454.654C540.933 449.183 542.194 443.541 544.623 438.382C548.327 430.516 554.451 424.848 562.688 421.963C568.766 419.834 575.559 419.589 581.922 419.052C591.825 418.217 601.742 417.669 611.662 417.085C632.964 415.83 654.266 414.605 675.575 413.461C683.764 413.021 691.971 412.592 700.153 412.035C707.032 411.566 714.042 410.899 720.936 411.01C723.402 411.05 725.902 411.305 728.121 412.467C731.386 414.178 734.051 417.255 735.059 420.831C735.851 423.637 735.565 427.045 734.955 429.871C732.667 440.474 729.383 450.973 726.39 461.398C719.908 483.974 712.849 506.388 706.196 528.914C698.272 555.742 690.286 582.551 682.079 609.294C679.37 618.121 676.626 626.926 673.753 635.701C671.559 642.406 669.583 649.231 666.007 655.365C659.926 665.796 650.793 666.917 640.125 669.7C639.528 670.373 639.491 670.845 639.408 671.708C639.317 672.655 639.239 672.646 639.824 673.364L643.785 673.759C662.553 675.624 681.453 676.077 700.272 677.251C710.796 677.907 722.073 678.471 732.348 680.81C734.231 681.238 736.733 681.728 737.828 683.438C737.546 683.867 737.533 683.948 737.062 684.312C735.026 685.884 730.387 686.486 727.905 686.997C708.418 691.006 687.954 692.318 668.104 693.251C621.53 695.441 574.859 695.103 528.248 695.427C446.205 695.998 364.133 695.884 282.088 695.118C238.053 694.706 194.015 694.627 149.982 694.047C120.446 693.658 90.4735 693.747 61.093 690.621C54.9103 689.963 29.9022 687.56 26.2706 683.062L26.6245 682.125C33.3223 677.253 91.4524 676.469 103.381 676.53C98.6162 673.093 96.5956 668.07 95.2275 662.57C92.2488 650.595 91.1409 637.697 89.2795 625.488C84.9575 597.139 81.0946 568.694 77.1779 540.284C74.0463 517.57 70.321 494.947 66.9 472.276C63.6829 450.956 60.9233 429.563 57.6484 408.25C54.5052 387.794 50.8817 367.412 47.5165 346.995C46.6037 341.456 45.6166 335.253 46.1659 329.625C47.0479 320.589 53.5267 311.026 61.3154 306.542C63.1851 305.466 65.1692 304.564 67.2223 303.897C67.9295 303.667 70.4828 303.232 70.9307 302.853C71.1711 302.649 70.9118 302.223 70.9036 301.908C70.8674 300.524 70.8305 299.135 70.8517 297.75C71.1261 279.814 76.8567 259.691 87.4124 245.08C99.4498 228.418 116.123 218.412 136.381 215.135L135.377 157.59C136.022 157.061 137.345 157.129 138.196 157.053C141.448 156.765 144.759 156.662 148.022 156.693C148.84 156.701 150.835 156.977 151.424 156.515C155.023 153.684 158.242 149.12 161.438 145.759C167.066 139.84 173.145 134.39 179.541 129.315C214.45 101.617 257.738 83.8967 301.688 77.0121C312.756 75.2783 323.915 74.3878 335.086 73.6602Z"/>
	<path fill="#10DBFA" transform="scale(0.666667 0.666667)" d="M198.366 583.017L201.291 585.953C200.827 587.558 200.387 588.645 199.518 590.059L199.184 590.667L198.792 591.34L190.52 585.223C191.107 584.702 191.379 584.328 191.705 583.614C192.843 584.421 193.443 584.645 194.849 584.644C196.776 584.642 197.01 584.334 198.366 583.017Z"/>
	<path fill="#611613" transform="scale(0.666667 0.666667)" d="M221.092 651.697C225.996 652.123 230.935 653.771 235.633 655.156C240.218 656.507 244.746 657.577 249.141 659.515C241.193 659.561 233.347 657.804 225.501 656.7C221.947 656.2 218.352 656.083 214.815 655.523C216.879 655.247 219.42 655.916 221.273 655.503L221.812 655.369L222.375 655.688C223.385 655.66 224.868 655.467 225.787 655.925L226.125 656.158C226.759 656.071 227.117 655.997 227.728 656.24C228.514 656.552 228.989 656.553 229.84 656.493C231.081 656.406 232.615 657.387 233.812 657.191C233.829 656.463 233.86 656.006 233.625 655.307L232.314 654.936C231.661 654.695 231.188 654.446 230.487 654.375C229.264 654.25 227.469 653.855 226.315 653.414C224.511 652.724 223.081 653.047 221.377 651.893L221.092 651.697Z"/>
	<path fill="#FF6737" transform="scale(0.666667 0.666667)" d="M470.499 531.767L472.312 531.842C476.679 532.508 479.569 535.273 482.052 538.665L476.794 537.804C473.454 537.023 469.887 536.521 466.63 535.479C465.936 535.257 465.04 535.082 464.577 534.518C466.547 533.311 468.281 532.442 470.499 531.767Z"/>
	<path fill="#FF6737" transform="scale(0.666667 0.666667)" d="M319.803 620.438L320.589 620.487C322.107 622.868 324.246 627.219 324.371 630.053C324.431 631.399 324.102 632.946 323.088 633.894C322.538 634.409 321.899 634.225 321.188 634.247C319.663 633.882 318.512 633.356 317.485 632.119C316.146 630.504 315.898 628.068 316.199 626.062C316.553 623.696 317.966 621.863 319.803 620.438Z"/>
	<path fill="#9CD2EE" transform="scale(0.666667 0.666667)" d="M175.727 570.384L175.612 570.333C175.371 569.475 175.358 569.002 175.528 568.127C176.429 567.895 176.407 567.993 177.236 568.263L177.865 570.377L178.477 570.565C179.148 570.161 179.604 570.089 179.906 569.344C179.562 568.54 179.756 568.812 179.186 568.178L178.783 567.75L179.459 567.423C182.951 573.076 186.809 579.013 191.706 583.563L191.705 583.614C191.379 584.328 191.107 584.702 190.52 585.223C187.879 584.004 185.936 580.779 182.82 580.408C182.214 580.335 181.749 580.276 181.166 580.114C180.232 576.895 177.51 573.936 176.866 570.799C176.742 570.194 176.668 570.228 176.235 569.789L175.727 570.384Z"/>
	<path fill="#08CFF2" transform="scale(0.666667 0.666667)" d="M477.114 557.24L477.401 557.71C478.896 560.088 480.909 562.142 483.747 562.789C485.394 563.164 486.924 562.787 488.295 561.834L492.368 558.624L493.074 558.938C493.381 560.423 493.559 561.236 492.938 562.649C490.3 565.028 488.283 566.873 484.508 566.668C480.21 566.435 475.708 563.377 472.95 560.28L472.571 559.838L474.036 559.671C475.768 559.407 476.147 558.574 477.114 557.24Z"/>
	<path fill="#51B4DC" transform="scale(0.666667 0.666667)" d="M252.624 576.982C254.989 565.483 261.078 557.314 270.868 550.828C274.069 548.707 276.882 547.035 280.786 546.622C278.199 548.193 275.398 549.469 272.876 551.116C264.003 556.91 257.369 564.886 254.869 575.358L253.844 580.076C253.712 582.453 252.992 588.055 254.412 589.948L254.586 590.532C254.856 591.488 254.845 592.466 254.862 593.452L255.504 593.542L255.593 593.635C255.808 594.568 255.677 595.386 255.562 596.32L255.25 595.961C254.517 595.074 254.109 593.689 253.685 592.627C251.6 587.399 251.956 582.464 252.624 576.982Z"/>
	<path fill="#10DBFA" transform="scale(0.666667 0.666667)" d="M347.049 611.995C348.412 614.916 348.922 618.057 347.843 621.176C346.792 624.216 344.88 626.76 341.899 628.102C340.901 628.551 340.068 628.56 339 628.456C336.746 627.261 334.437 623.805 333.421 621.477C339.451 620.862 342.712 615.632 347.049 611.995Z"/>
	<path fill="white" transform="scale(0.666667 0.666667)" d="M333.421 621.477L331.579 619.439C330.913 618.602 330.221 617.628 330.462 616.5C331.036 613.81 333.919 610.831 336.135 609.395C338.005 608.184 340.349 607.524 342.564 608.065C344.931 608.643 345.807 610.057 347.049 611.995C342.712 615.632 339.451 620.862 333.421 621.477Z"/>
	<defs>
		<linearGradient id="gradient_0" gradientUnits="userSpaceOnUse" x1="484.168" y1="547.25299" x2="472.43301" y2="558.367">
			<stop offset="0" stop-color="#FF671A"/>
			<stop offset="1" stop-color="#FF8259"/>
		</linearGradient>
	</defs>
	<path fill="url(#gradient_0)" transform="scale(0.666667 0.666667)" d="M472.571 559.838L471.259 558.445C469.504 556.296 468.591 553.813 468.991 551.006C469.284 548.946 470.225 547.686 471.938 546.497C473.85 545.169 476.033 544.885 478.264 545.438C484.268 546.924 488.802 549.905 491.928 555.229C487.835 554.398 482.569 551.265 478.422 552.012C477.454 552.187 477.372 552.521 476.812 553.275C476.62 554.607 476.703 555.497 477.009 556.811L477.114 557.24C476.147 558.574 475.768 559.407 474.036 559.671L472.571 559.838Z"/>
	<defs>
		<linearGradient id="gradient_1" gradientUnits="userSpaceOnUse" x1="218.62199" y1="602.39099" x2="220.668" y2="591.47498">
			<stop offset="0" stop-color="#00D3F5"/>
			<stop offset="1" stop-color="#3BF3FF"/>
		</linearGradient>
	</defs>
	<path fill="url(#gradient_1)" transform="scale(0.666667 0.666667)" d="M201.291 585.953C207.161 591.414 213.816 596.313 221.275 599.383C223.779 600.414 226.491 601.223 229.124 601.85C231.773 602.479 234.466 602.911 237.15 603.357C238.44 603.571 240.066 603.566 241.016 604.546L240.938 605.602C239.3 606.842 234.011 605.938 232.015 605.67C219.809 604.033 208.785 598.279 198.792 591.34L199.184 590.667L199.518 590.059C200.387 588.645 200.827 587.558 201.291 585.953Z"/>
	<defs>
		<linearGradient id="gradient_2" gradientUnits="userSpaceOnUse" x1="454.401" y1="375.74701" x2="466.604" y2="357.38101">
			<stop offset="0" stop-color="#79B4D2"/>
			<stop offset="1" stop-color="#BCF9FF"/>
		</linearGradient>
	</defs>
	<path fill="url(#gradient_2)" transform="scale(0.666667 0.666667)" d="M438.463 338.085C441.052 348.652 444.005 357.27 450.205 366.332C457.291 374.88 465.744 382.047 476.526 385.435C480.02 386.532 483.624 386.955 487.244 387.392C485.995 389.783 484.707 392.437 482.899 394.462C479.365 392.496 476.224 390.029 472.875 387.778C464.901 382.417 456.367 377.828 450.294 370.161C449.723 369.707 449.296 369.292 448.86 368.7C442.751 360.385 436.792 348.667 438.463 338.085Z"/>
	<path fill="#FF6737" transform="scale(0.666667 0.666667)" d="M329.301 583.545C329.825 583.512 330.324 583.521 330.846 583.588C334.408 584.046 335.768 585.86 337.879 588.508L331.977 588.837C320.042 590.832 310.356 599.916 303.673 609.413L300.562 614.619C299.935 614.042 299.784 613.744 299.577 612.878C298.88 609.967 301.041 606.201 302.518 603.749C308.495 593.826 318.055 586.352 329.301 583.545Z"/>
	<path fill="#86201C" transform="scale(0.666667 0.666667)" d="M176.665 663.703L176.504 661.312C176.777 659.11 179.985 656.18 181.76 654.91C186.912 651.224 193.405 650.727 199.524 650.514C206.67 650.265 214.028 650.589 221.092 651.697L221.377 651.893C223.081 653.047 224.511 652.724 226.315 653.414C227.469 653.855 229.264 654.25 230.487 654.375C231.188 654.446 231.661 654.695 232.314 654.936L233.625 655.307C233.86 656.006 233.829 656.463 233.812 657.191C232.615 657.387 231.081 656.406 229.84 656.493C228.989 656.553 228.514 656.552 227.728 656.24C227.117 655.997 226.759 656.071 226.125 656.158L225.787 655.925C224.868 655.467 223.385 655.66 222.375 655.688L221.812 655.369L221.273 655.503C219.42 655.916 216.879 655.247 214.815 655.523C204.674 655.433 188.435 653.455 180.616 660.942L178.059 663.742L176.665 663.703Z"/>
	<path fill="#08CFF2" transform="scale(0.666667 0.666667)" d="M315.448 563.284L316.021 563.233C320.546 563.037 327.165 571.952 330.277 574.85C328.559 574.848 326.84 574.847 325.122 574.846C324.685 574.845 323.407 574.971 323.057 574.844C322.794 574.748 321.66 573.189 321.425 572.913C320.067 571.326 318.723 569.708 316.965 568.543C315.634 567.661 312.825 568.065 311.33 568.356C300.357 570.491 291.736 581.104 285.783 589.821C284.379 591.93 282.919 594.027 281.699 596.249C280.51 598.415 279.449 600.968 277.81 602.812L277.312 602.591C276.3 598.489 278.519 594.351 280.548 590.902C288.171 577.941 300.737 567.067 315.448 563.284Z"/>
	<path fill="#08CFF2" transform="scale(0.666667 0.666667)" d="M479.082 660.188L480.375 659.993L480.691 660.375L477.422 668.489C460.309 670.33 443.243 670.015 426.092 668.855L424.313 668.47C425.533 667.804 427.13 667.714 428.491 667.5C431.384 667.044 434.29 666.691 437.197 666.335C443.518 665.56 449.848 664.714 456.157 663.837C463.812 662.773 471.463 661.485 479.082 660.188Z"/>
	<path fill="white" transform="scale(0.666667 0.666667)" d="M179.459 567.423C179.278 566.396 178.575 565.317 178.133 564.367C177.284 562.546 176.532 560.675 175.868 558.779C173.356 551.608 171.466 544.322 170.15 536.839C169.53 533.318 168.843 529.901 168.85 526.312L169.993 525.317C175.301 545.374 183.609 567.858 198.366 583.017C197.01 584.334 196.776 584.642 194.849 584.644C193.443 584.645 192.843 584.421 191.705 583.614L191.706 583.563C186.809 579.013 182.951 573.076 179.459 567.423Z"/>
	<path fill="#FF6737" transform="scale(0.666667 0.666667)" d="M312.736 572.666L313.2 572.598C315.215 572.538 317.439 574.944 318.892 576.175C303.288 581.59 292.523 596.976 284.931 610.917L283.312 613.256L282.562 613.289C282.12 612.844 281.512 612.319 281.339 611.685C281.003 610.452 281.529 608.731 281.876 607.547C283.419 602.288 286.26 597.186 289.133 592.533C294.201 584.322 302.998 574.994 312.736 572.666Z"/>
	<path fill="#08CFF2" transform="scale(0.666667 0.666667)" d="M330.718 594.815C331.699 594.746 333.459 594.47 334.348 594.943C335.585 595.602 336.793 596.494 337.108 597.938C337.28 598.725 337.764 600.717 336.938 601.261C336.367 601.637 335.13 601.904 334.455 602.157C332.741 602.801 331.052 603.519 329.386 604.278C320.368 608.385 312.326 615.122 307.358 623.684C306.726 625.016 305.971 627.161 304.688 627.916L304.148 627.375C303.037 623.284 304.61 617.425 306.44 613.688C311.113 604.142 321 598.063 330.718 594.815Z"/>
	<path fill="#08CFF2" transform="scale(0.666667 0.666667)" d="M448.249 616.688L449.062 616.836C450.407 618.861 451.077 621.689 451.863 623.996L376.406 624.034C374.839 624.089 373.467 623.88 371.934 623.567C380.19 621.067 390.219 621.303 398.86 620.686C415.266 619.515 431.936 618.691 448.249 616.688Z"/>
	<path fill="white" transform="scale(0.666667 0.666667)" d="M451.993 610.688C453.594 610.144 457.441 611.57 459.282 611.865C471.191 613.776 483.036 615.81 494.92 617.872L492.732 625.036C492.55 625.78 492.317 626.116 491.812 626.689C483.587 625.905 475.255 626.183 466.989 625.521C464.952 625.358 461.545 625.409 459.752 624.375C458.701 623.769 457.961 622.182 457.348 621.144C455.411 617.86 453.219 614.299 451.993 610.688Z"/>
	<path fill="white" transform="scale(0.666667 0.666667)" d="M262.432 614.784C265.229 614.616 267.831 614.866 270.606 615.221C262.741 622.01 258.508 627.749 257.151 638.239L244.095 637.251C241.964 636.692 239.556 636.124 237.782 634.763C236.329 633.649 235.556 632.392 235.327 630.572C235.047 628.339 235.592 626.554 236.97 624.82C242.514 617.845 254.062 615.581 262.432 614.784Z"/>
	<path fill="#08CFF2" transform="scale(0.666667 0.666667)" d="M254.412 589.948C256.117 584.193 257.878 578.514 260.639 573.156C265.542 563.641 273.811 554.291 284.309 550.915C290.932 548.784 298.34 549.765 304.505 552.938L309.895 556.197C306.766 556.787 303.09 557.124 300.185 558.38C295.625 560.35 291.491 563.919 287.909 567.287C281.479 573.334 275.784 579.969 270.799 587.258C267.322 592.341 262.941 598.512 260.998 604.312L260.393 605.79L259.828 605.675C258.584 603.64 258.288 602.748 258.869 600.417C260.95 592.051 266.052 584.283 271.435 577.695C276.831 571.092 283.099 564.836 290.522 560.551C293.268 558.966 295.845 557.919 298.911 557.147L300.476 556.745C295.78 554.366 292.377 553.429 287.229 555.103C282.738 556.562 278.676 559.569 275.185 562.681C268.522 568.62 263.096 575.559 259.163 583.585C257.571 586.835 256.515 590.146 255.593 593.635L255.504 593.542L254.862 593.452C254.845 592.466 254.856 591.488 254.586 590.532L254.412 589.948Z"/>
	<path fill="#10DBFA" transform="scale(0.666667 0.666667)" d="M280.344 620.322C283.377 619.982 285.987 620.306 288.625 621.958C292.079 624.12 294.471 627.72 295.236 631.713C295.858 634.958 293.963 639.091 292.001 641.672C289.057 645.545 284.541 647.301 279.879 647.968C277.65 647.998 275.115 647.605 273.07 646.717C270.062 645.411 266.02 642.228 264.989 638.959C264.147 636.29 264.934 633.091 266.184 630.691C269.164 624.97 274.512 622.238 280.344 620.322Z"/>
	<path fill="white" transform="scale(0.666667 0.666667)" d="M279.486 631.688C280.592 631.557 281.105 631.31 282.064 632.062C282.892 632.711 283.402 633.656 283.472 634.688C282.816 635.872 282.779 635.976 281.57 636.562C280.688 636.729 279.637 636.703 278.812 636.285C277.876 635.811 277.717 635.267 277.515 634.312C277.939 633.072 278.512 632.543 279.486 631.688Z"/>
	<path fill="white" transform="scale(0.666667 0.666667)" d="M523.979 233.062C528.769 232.377 534.302 234.439 538.641 236.248C549.51 240.781 557.376 250.162 561.752 260.888C567.218 274.287 568 289.683 567.843 303.986C567.782 309.492 567.742 315.214 566.769 320.647C565.928 325.343 564.476 329.757 562.647 334.153L561.299 336.188L560.835 336.171C560.108 332.587 561.784 326.954 562.253 323.25C565.724 295.837 561.79 269.433 541.487 249.186C538 245.708 534.339 242.468 530.617 239.246C528.677 237.567 525.634 235.5 524.196 233.433L523.979 233.062Z"/>
	<path fill="#08CFF2" transform="scale(0.666667 0.666667)" d="M485.664 643.688L486.546 643.693C485.984 646.997 484.311 650.758 483.298 654.019C481.061 654.764 478.406 654.996 476.077 655.413C470.92 656.335 465.75 657.111 460.58 657.942C445.805 660.314 431.136 662.32 416.25 663.853C411.883 664.302 407.528 665.06 403.138 665.256C390.85 665.805 378.381 664.72 366.092 664.302L364.426 663.938L364.098 663.188C365.351 661.722 366.53 661.212 368.378 660.741C372.368 659.724 376.563 659.227 380.625 658.556C389.301 657.121 397.977 655.937 406.688 654.749C433.05 651.156 459.438 648.258 485.664 643.688Z"/>
	<path fill="white" transform="scale(0.666667 0.666667)" d="M211.249 509.062C213.096 508.884 215.204 509.087 217.03 509.413C224.994 510.834 231.049 515.486 236.983 520.736C241.576 524.801 245.863 529.089 249.996 533.618C253.961 537.961 257.984 542.336 261.32 547.195L254.916 552.97C252.818 554.678 250.196 557.249 247.311 557.162C241.083 556.972 234.759 551.754 230.553 547.574C222.189 539.263 215.909 526.991 211.823 516.053C211.095 514.104 209.833 511.378 209.812 509.286L211.249 509.062Z"/>
	<path fill="#010918" transform="scale(0.666667 0.666667)" d="M228.804 527.994C229.886 527.954 230.91 527.91 231.938 528.323C232.753 528.651 233.268 529.351 233.555 530.15C234.027 531.466 233.771 532.971 233.166 534.188C232.125 535.189 231.498 535.5 230.062 535.67C229.506 535.639 228.918 535.629 228.375 535.481C227.351 535.201 226.117 534.412 225.629 533.438C225.033 532.245 225.091 531.699 225.401 530.438C226.405 529.175 227.345 528.652 228.804 527.994Z"/>
	<path fill="#010918" transform="scale(0.666667 0.666667)" d="M243.144 538.312C244.116 538.258 244.974 538.492 245.921 538.688C246.962 539.486 248.02 540.344 248.438 541.644C248.874 543.001 248.669 544.519 247.956 545.734C247.087 547.214 245.538 547.704 243.974 548.062C243.12 548.041 242.294 547.884 241.5 547.552C240.133 546.981 239.154 545.863 238.733 544.453C238.371 543.242 238.637 542.11 239.296 541.054C240.243 539.536 241.456 538.771 243.144 538.312Z"/>
	<path fill="#10DBFA" transform="scale(0.666667 0.666667)" d="M200.686 240.562C207.941 242.348 214.42 247.371 219.142 253.013C223.485 258.201 226.569 264.589 228.84 270.927C235.12 288.453 235.594 307.879 233.825 326.254C232.909 335.762 231.289 345.232 228.396 354.349C226.136 361.469 223.539 367.891 217.652 372.732C213.987 375.286 211.276 375.81 206.959 375.989C209.539 369.606 212.638 363.537 214.787 356.964C221.471 336.523 223.59 313.264 219.913 292.018C218.459 283.619 215.888 275.141 212.955 267.141C210.856 261.418 208.379 255.787 205.633 250.345C204.159 247.424 201.89 244.287 200.886 241.209L200.686 240.562Z"/>
	<path fill="#10DBFA" transform="scale(0.666667 0.666667)" d="M523.161 209.779C533.041 209.003 543.268 210.036 552.375 214.135C568.007 221.169 577.1 235.173 582.939 250.726C589.016 266.914 590.76 285.089 588.919 302.232C588.349 307.542 587.663 312.787 585.444 317.697L576.569 316.011L576.823 306.592C577.595 288.289 575.034 269.582 567.646 252.731C561.943 239.721 552.097 229.886 538.771 224.768C531.903 222.13 525.216 221.026 517.868 221.131C514.474 221.179 511.614 221.277 508.48 222.676L507.944 222.919C505.823 219.94 503.003 217.148 500.105 214.927L499.661 214.59C503.085 213.88 506.357 212.66 509.742 211.808C514.121 210.707 518.667 210.147 523.161 209.779Z"/>
	<path fill="#08CFF2" transform="scale(0.666667 0.666667)" d="M353.727 627.188C355.112 626.885 356.723 627.437 358.145 627.562C360.695 627.786 363.284 627.845 365.84 627.972C382.783 628.815 399.702 629.53 416.637 630.538C430.306 631.352 444.107 631.826 457.8 631.468C461.193 631.379 464.562 630.941 467.952 630.785C475.634 630.43 483.189 630.392 490.861 631.038L488.77 637.445C482.978 637.394 477.293 638.246 471.562 638.989C461.238 640.328 450.989 642.133 440.724 643.855C424.99 646.495 409.211 648.749 393.405 650.91C387.73 651.747 359.129 656.647 355.764 655.445C355.073 655.198 354.023 653.776 353.533 653.176C352.079 651.399 350.631 649.603 348.862 648.124C344.834 644.758 340.007 642.328 335.589 639.515C338.442 639.654 341.455 640.897 344.438 641.14C358.113 642.254 372.227 641.975 385.969 642.178C390.032 642.238 394.095 642.288 398.158 642.295C400.142 642.298 402.506 642.491 404.438 641.98C405.411 641.722 406.183 640.846 406.566 639.938C406.931 639.073 407.087 638.639 406.688 637.75C404.327 637.189 401.329 637.532 398.897 637.528C393.939 637.522 388.98 637.529 384.023 637.504C371.682 637.442 359.23 636.653 346.91 637.295C343.639 637.465 339.813 637.588 336.75 638.859L336.188 639.107C335.252 638.954 334.712 638.941 334.008 638.25C335.139 637.163 338.371 637.009 339.938 636.625C345.593 635.24 350.259 631.769 353.727 627.188Z"/>
	<path fill="#9CD2EE" transform="scale(0.666667 0.666667)" d="M230.594 237.38C231.361 238.247 231.768 238.954 232.875 239.335C236.209 237.042 239.277 232.852 242.073 229.864C246.864 224.745 251.739 219.664 256.936 214.953C259.561 217.453 262.766 218.955 264.685 222.035L264.871 222.283C262.543 223.697 261.125 225.014 259.879 227.451L259.887 228.235C257.033 231.083 254.943 233.648 254.924 237.875C254.896 244.295 262.036 252.344 265.165 257.623C266.936 260.611 268.346 263.851 270.22 266.757C266.307 272.564 262.976 278.535 260.643 285.157C257.568 293.88 256.333 302.995 255.395 312.146C254.938 313.746 254.816 315.132 254.812 316.793L254.441 317.25C254.435 318.518 254.452 319.739 254.533 321L254.441 326.25L254.816 326.812C254.815 327.728 255.06 329.375 254.441 330L254.434 330.562L253.688 330.191L253.26 331.302C253.076 331.789 253.143 331.622 253.031 332.18C252.749 333.591 253.189 331.667 252.658 333L252.562 333.566L252.474 334.057C252.306 335.064 252.142 336.015 252.281 337.031L252 337.688L251.919 339.744C251.917 340.916 251.976 339.91 251.625 341.062C250.932 343.336 252.542 347.562 251.25 349.5L251.175 353.045C251.173 353.905 251.182 353.182 250.875 354.188C250.675 354.842 250.689 355.708 250.5 356.438C250.327 357.105 250.34 357.607 250.125 358.312C249.895 359.066 250.04 359.719 249.75 360.562L249.562 361.5L249.283 363C249.169 363.528 248.811 364.108 248.719 364.594C248.618 365.122 248.768 365.959 248.877 366.494C248.821 367.41 248.788 367.439 248.434 368.25L248.224 369.373L247.857 370.498L247.675 371.061C247.386 371.906 246.979 372.632 246.735 373.498C245.941 376.326 244.332 379.243 242.804 381.75L240.028 386.049C238.948 387.647 237.277 389.516 235.684 390.562C234.846 391.113 234.11 391.847 233.25 392.416L232.711 392.786C231.452 393.615 229.822 394.455 228.373 394.862C227.744 395.039 227.18 395.267 226.581 395.525C225.966 395.789 225.615 395.813 224.998 395.963C221.016 396.933 216.796 398.479 212.938 396.188L211.756 395.274C211.361 394.943 210.965 394.727 210.503 394.507C218.19 394.595 225.231 392.142 230.892 386.889C244.146 374.591 245.988 353.135 247.591 336.216C248.277 328.978 249.028 321.705 249.288 314.438C250.149 290.37 243.851 256.296 227.016 238.272C228.428 237.655 229.043 237.014 230.594 237.38Z"/>
	<path fill="white" transform="scale(0.666667 0.666667)" d="M418.126 521.778L419.438 522.099C423.594 526.34 425.384 535.659 427.075 541.303C429.37 548.964 431.569 556.651 433.852 564.316C425.997 565.916 417.852 566.15 409.875 566.749C398.738 567.585 387.551 568.418 376.381 568.515C374.586 568.509 372.359 568.379 370.674 567.716C369.323 567.184 368.494 566.431 367.947 565.078C366.983 562.69 366.608 559.97 366.122 557.447C365.187 552.585 364.43 547.693 363.49 542.834C362.769 539.103 361.863 535.411 361.113 531.687C360.768 529.975 360.255 527.605 360.938 525.944C363.283 525.185 366.081 525.195 368.53 525.025C373.746 524.663 378.969 524.484 384.188 524.17C395.508 523.488 406.801 522.423 418.126 521.778Z"/>
	<path fill="#010918" transform="scale(0.666667 0.666667)" d="M410.872 533.411L415.161 533.278C418.302 540.449 420.658 549.675 420.683 557.485C416.924 558.256 413.023 558.281 409.206 558.568C401.959 559.111 394.709 559.61 387.467 560.207L379.995 560.613C379.271 557.815 379.055 554.823 378.591 551.964C377.704 546.49 376.598 541.09 376.438 535.531L410.872 533.411Z"/>
	<path fill="#10DBFA" transform="scale(0.666667 0.666667)" d="M404.936 541.651L410.103 541.294L411.741 551.152L393.841 552.305L388.811 552.644C388.351 551.879 388.362 550.662 388.24 549.779C387.93 547.542 387.608 545.307 387.286 543.071L404.936 541.651Z"/>
	<path fill="#BDDDF1" transform="scale(0.666667 0.666667)" d="M175.727 570.384C176.98 574.373 179.208 577.271 180.786 580.969C181.301 582.176 181.763 583.36 182.546 584.428C185.081 587.884 188.5 590.77 191.846 593.408C204.937 603.731 219.565 609.099 235.85 611.876C229.754 614.927 227.395 617.872 224.853 624.161C216.351 622.679 207.544 621.062 199.372 618.239C184.584 613.129 170.016 603.065 160.615 590.449C149.908 576.082 147.609 558.283 150.25 540.901C152.076 528.879 156.328 513.264 166.563 505.7L169.993 525.317L168.85 526.312C168.843 529.901 169.53 533.318 170.15 536.839C171.466 544.322 173.356 551.608 175.868 558.779C176.532 560.675 177.284 562.546 178.133 564.367C178.575 565.317 179.278 566.396 179.459 567.423L178.783 567.75L179.186 568.178C179.756 568.812 179.562 568.54 179.906 569.344C179.604 570.089 179.148 570.161 178.477 570.565L177.865 570.377L177.236 568.263C176.407 567.993 176.429 567.895 175.528 568.127C175.358 569.002 175.371 569.475 175.612 570.333L175.727 570.384Z"/>
	<path fill="#E45F71" transform="scale(0.666667 0.666667)" d="M176.008 404.062L176.424 404.052C179.586 406.243 183.514 407.786 187.113 409.115C193.861 411.608 200.614 413.402 207.638 414.905C217.281 416.968 227.022 419.004 236.812 420.234C252.836 422.248 268.926 422.715 285.054 422.98C303.147 423.277 321.097 423.193 339.188 423.055C361.163 422.887 383.055 422.983 405 421.467C419.18 420.488 433.093 418.59 447.153 416.616C446.103 419.962 443.52 422.789 440.989 425.098L439.477 426.127C436.42 428.087 432.594 429.053 429.1 429.901C421.911 431.645 414.57 432.614 407.25 433.595C385.405 436.524 363.282 437.523 341.261 437.994C314.796 438.561 287.903 438.258 261.564 435.539C252.149 434.567 243.016 432.497 233.67 431.222C223.758 429.869 213.347 429.654 203.602 427.431C191.439 424.658 182.4 414.226 176.008 404.062Z"/>
	<path fill="white" transform="scale(0.666667 0.666667)" d="M314.145 103.66L320.736 103.536C320.703 106.441 320.469 109.188 320.012 112.057C308.402 113.171 296.927 114.484 285.549 117.187C268.411 121.259 250.846 128.716 235.875 138.015C225.781 144.285 216.044 151.946 208.438 161.124C195.301 176.976 188.488 197.17 183.887 216.953C172.843 212.744 163.089 211.899 151.406 212.262L142.651 213.498C142.015 212.201 142.128 209.833 142.033 208.347C141.598 201.541 141.479 194.579 141.64 187.765L155.812 187.399C157.643 187.211 159.008 186.207 160.196 184.843C162.419 182.293 163.964 178.731 165.727 175.827C168.511 171.242 171.683 166.96 175.234 162.938C197.916 137.243 231.546 118.474 264.633 110.367C280.745 106.419 297.609 104.691 314.145 103.66Z"/>
	<path fill="#BDDDF1" transform="scale(0.666667 0.666667)" d="M248.877 366.494L251.967 350.861L252.021 354.562C253.067 355.495 255.43 355.803 256.806 356.062L257.5 355.187C259.121 358.742 260.636 362.309 262.688 365.649C269.27 376.363 279.641 385.275 291.474 389.656C299.711 392.706 307.909 393.735 316.617 394.216C320.066 394.406 323.603 394.776 327 394.033L330.081 393.401L333.567 393.13L349.051 418.202C337.025 418.755 324.939 418.761 312.902 419.029C296.727 419.389 280.549 419.924 264.374 419.279C242.985 418.425 221.186 415.545 200.305 410.792C195.321 409.657 190.404 408.214 185.651 406.33C182.557 405.103 179.308 403.373 176.1 402.542L173.706 401.914C176.745 400.848 179.828 399.821 182.672 398.293C187.071 395.93 190.953 392.742 194.784 389.574C200.072 391.89 204.785 393.553 210.503 394.507C210.965 394.727 211.361 394.943 211.756 395.274L212.938 396.188C216.796 398.479 221.016 396.933 224.998 395.963C225.615 395.813 225.966 395.789 226.581 395.525C227.18 395.267 227.744 395.039 228.373 394.862C229.822 394.455 231.452 393.615 232.711 392.786L233.25 392.416C234.11 391.847 234.846 391.113 235.684 390.562C237.277 389.516 238.948 387.647 240.028 386.049L242.804 381.75C244.332 379.243 245.941 376.326 246.735 373.498C246.979 372.632 247.386 371.906 247.675 371.061L247.857 370.498L248.224 369.373L248.434 368.25C248.788 367.439 248.821 367.41 248.877 366.494Z"/>
	<path fill="#FF6456" transform="scale(0.666667 0.666667)" d="M337.208 80.4181C367.081 79.2667 397.198 81.7753 426 89.9766C441.358 94.3498 456.773 100.302 470.767 108.038C477.054 111.513 483.064 115.59 488.967 119.674C501.241 128.166 513.051 138.211 522.062 150.187C525.754 155.094 528.316 160.077 531.257 165.383L536.896 165.6C536.695 168.217 536.142 170.704 535.566 173.26L523.525 173.367C519.552 163.274 512.879 154.06 505.134 146.525C471.731 114.03 426.362 99.3112 380.812 94.6096C365.715 93.0512 350.599 92.8507 335.439 93.0215L301.027 95.5546C268.399 99.8772 236.942 110.206 208.875 127.503C195.264 135.891 182.289 145.947 171.529 157.824C168.339 161.345 165.305 165.055 162.657 169.003C160.224 172.632 158.157 176.479 155.501 179.958L142.206 179.751C143.959 176.023 146.549 172.857 148.961 169.544C153.6 163.173 158.302 157.036 163.684 151.258C172.549 141.739 182.284 133.731 192.858 126.206C234.705 96.4231 286.241 82.2873 337.208 80.4181Z"/>
	<path fill="white" transform="scale(0.666667 0.666667)" d="M344.059 103.688C344.627 103.424 344.997 103.362 345.626 103.355C357.193 103.237 368.951 104.35 380.455 105.499C410.529 108.503 441.346 114.929 467.798 130.172C477.742 135.902 487.205 143.334 495.452 151.277C500.163 155.815 504.575 160.854 508.109 166.369C510.774 170.526 512.735 176.507 516.355 179.812C519.362 182.559 523.838 182.058 527.63 182.019C531.737 181.976 535.82 181.873 539.914 181.519L541.576 201.021C538.259 200.418 534.705 200.384 531.339 200.263L519.75 200.987C511.891 202.16 501.753 204.688 496.836 211.478L496.534 211.908C493.009 210.6 490.241 209.557 486.495 209.069C486.055 206.08 485.081 203.205 484.24 200.311C480.261 186.621 472.758 173.302 463.438 162.512C434.307 128.79 387.713 116.715 344.933 113.582L344.059 103.688Z"/>
	<path fill="#10DBFA" transform="scale(0.666667 0.666667)" d="M489.343 264.128C497.568 263.251 505.846 264.849 512.538 269.864C523.675 278.209 528.105 292.793 529.981 306C532.09 320.851 531.019 337.248 525.761 351.375C524.169 355.653 522.274 359.841 519.477 363.479C513.508 371.242 505.67 374.94 496.091 376.168C488.31 376.961 480.745 375.357 474.351 370.69C470.801 368.099 468.206 364.662 465.867 360.996C459.907 351.655 456.58 340.89 454.913 330C452.354 313.292 453.624 293.044 463.982 279.003C470.511 270.151 478.605 265.763 489.343 264.128Z"/>
	<path fill="#010918" transform="scale(0.666667 0.666667)" d="M487.631 272.71C492.936 272.055 498.76 273.073 503.453 275.664C512.643 280.739 517.357 290.448 520.045 300.188C521.158 304.221 521.605 308.249 521.975 312.404C523.102 325.066 522.149 341.103 515.65 352.295C511.36 359.685 504.813 363.346 496.779 365.437C490.086 366.092 484.488 365.637 478.713 361.875C469.94 356.16 465.428 343.382 463.405 333.563C460.297 318.477 459.973 298.414 468.853 285.14C473.445 278.276 479.623 274.334 487.631 272.71Z"/>
	<path fill="#0B497D" transform="scale(0.666667 0.666667)" d="M490.337 342.586C495.837 342.289 502.093 341.901 507.562 342.464L507.759 343.312C507.403 344.101 507.041 344.959 506.455 345.608C504.501 347.774 500.528 347.501 497.865 347.645C494.186 347.757 490.505 347.876 486.824 347.927C485.28 347.949 483.596 348.216 482.217 347.438C481.344 346.002 481.261 344.386 481.031 342.751L490.337 342.586Z"/>
	<path fill="#0B497D" transform="scale(0.666667 0.666667)" d="M503.712 326.838L508.45 326.655C508.986 328.935 509.13 331.356 509.386 333.686L481.653 334.706L477.16 334.782L476.99 327.958L503.712 326.838Z"/>
	<path fill="#BDDDF1" transform="scale(0.666667 0.666667)" d="M486.796 297.478C488.34 297.381 489.937 297.408 491.438 297.824C493.273 298.333 495.04 299.802 495.9 301.505C496.912 303.509 497.13 306.294 496.324 308.391C495.151 311.442 492.899 312.864 490.007 314.043C488.276 314.243 486.613 314.08 485 313.379C483.038 312.526 481.517 310.966 480.777 308.952C480.026 306.908 479.855 304.279 480.842 302.279C482.173 299.581 484.107 298.483 486.796 297.478Z"/>
	<path fill="#08CFF2" transform="scale(0.666667 0.666667)" d="M249.253 447.918C263.677 447.105 278.12 449.54 292.424 450.935C303.036 451.97 313.687 453.11 324.343 453.569C337.32 454.128 350.062 453.759 363.004 452.743L362.963 458.849C369.099 459.627 375.275 460.762 381.394 461.707C392.226 463.38 403.167 464.929 413.625 468.323C418.765 469.991 423.59 471.673 427.612 475.412L427.34 475.751C423.604 478.773 416.344 479.87 411.75 480.832C384.399 486.558 355.386 487.008 327.509 486.636C308.921 486.388 289.815 485.763 271.454 482.745C263.39 481.42 255.444 479.864 247.585 477.605C237.27 474.639 226.637 470.396 215.876 469.534C209.316 469.009 203.157 468.605 197.852 473.119C196.057 475.815 195.126 478.094 194.732 481.335C194.175 485.932 194.737 490.823 195.42 495.375C198.148 513.551 206.308 530.746 217.483 545.218C225.078 555.055 234.472 564.375 247.3 565.983C241.865 573.898 241.421 584.095 241.369 593.336C230.875 593.286 218.986 589.507 211.091 582.437C205.595 577.514 201.072 571.718 196.908 565.653C182.369 544.474 174.183 517.888 172.98 492.294C172.496 482.013 174.37 468.901 181.626 461.062C184.259 458.219 187.329 456.247 190.957 454.911C197.79 452.396 205.703 451.668 212.906 450.834C225.011 449.433 237.083 448.52 249.253 447.918Z"/>
	<defs>
		<linearGradient id="gradient_3" gradientUnits="userSpaceOnUse" x1="71.468399" y1="561.34399" x2="406.05701" y2="456.922">
			<stop offset="0" stop-color="#FF6C55"/>
			<stop offset="1" stop-color="#D35778"/>
		</linearGradient>
	</defs>
	<path fill="url(#gradient_3)" transform="scale(0.666667 0.666667)" d="M178.059 663.742C195.769 664.931 213.869 664.427 231.64 664.772C250.555 665.139 269.477 665.798 288.391 666.243C308.699 666.721 329.038 666.961 349.335 667.773C357.627 668.105 365.899 668.873 374.185 669.326C386.212 669.985 398.272 670.389 410.282 671.305C431.971 672.961 454.013 675.672 475.749 673.502C474.133 677.726 472.564 681.64 470.325 685.582C464.348 686.357 458.18 686.145 452.166 686.061C444.648 685.956 437.129 685.861 429.61 685.767C403.896 685.446 378.188 685.123 352.475 684.741C305.984 684.049 259.49 683.32 213 682.663C196.372 682.429 179.751 682.131 163.125 681.863C154.239 681.72 145.346 681.799 136.465 681.401C132.157 681.208 127.7 680.727 123.562 679.442C115.913 677.066 107.444 672.559 103.682 665.123C100.954 659.729 100.37 653.618 99.5609 647.712C98.7774 641.994 98.0209 636.272 97.2442 630.552C95.6883 619.094 94.1493 607.627 92.5299 596.178C91.1426 586.37 89.3729 576.617 87.9698 566.812C83.5619 536.013 79.6587 505.146 75.0138 474.375C70.5318 444.684 66.031 414.97 61.3319 385.312C58.9922 370.546 55.824 355.805 54.1226 340.954C53.5475 335.934 53.6213 331.572 55.2689 326.738C57.0281 321.576 59.9809 317.447 64.9096 314.963C66.436 316.195 68.039 317.513 69.3417 318.978C69.6363 319.309 71.3821 321.204 71.4159 321.512C71.4205 321.554 68.966 325.774 68.7699 326.235C67.6777 328.801 67.3553 331.464 67.2321 334.221C66.9535 340.454 68.0835 346.727 68.9635 352.875C70.438 363.177 72.2395 373.399 73.854 383.674C79.5783 420.104 85.7195 456.471 91.3514 492.915C94.3697 512.446 96.9356 532.057 99.7787 551.616C101.686 564.741 103.974 577.8 105.65 590.962C107.172 602.916 108.446 614.929 109.812 626.903C110.528 633.185 111.061 639.58 112.13 645.809C112.871 650.119 114.127 654.258 117.194 657.503C119.428 659.865 122.716 661.772 125.866 662.517C132.315 664.043 139.659 663.398 146.272 663.444C156.403 663.516 166.534 663.59 176.665 663.703L178.059 663.742Z"/>
	<path fill="white" transform="scale(0.666667 0.666667)" d="M214.252 478.227L214.908 478.194C220.258 477.987 226.254 479.134 231.184 481.221C234.511 482.63 237.979 484.582 240.496 487.215C246.715 493.718 248.161 503.683 251.258 511.875C251.918 513.623 252.683 515.983 254.16 517.208C255.199 518.069 256.531 518.051 257.812 517.794C259.013 517.553 259.905 517.212 260.529 516.188C260.03 513.528 258.152 510.495 257.081 507.973C254.7 502.371 252.692 496.739 250.007 491.242L272.626 496.719C285.871 498.942 299.231 500.271 312.632 501.067C340.113 502.7 368.401 502.512 395.808 499.785C405.302 498.84 415.423 497.888 424.481 494.752C427.348 493.759 429.888 492.383 432.342 490.611L432.783 490.289C433.924 493.771 434.439 497.675 435.127 501.281C435.86 505.124 436.824 508.926 437.514 512.773C437.727 513.959 438.254 515.884 438.155 517.063C438.01 518.813 432.239 525.733 430.896 527.649L427.798 521.438C426.251 518.692 423.605 515.67 420.433 514.913C417.598 514.237 414.174 514.769 411.293 514.962C405.448 515.353 399.602 515.863 393.754 516.188C383.182 516.774 372.364 516.818 361.846 517.929C360.448 518.077 358.968 518.258 357.75 519.013C356.168 519.993 354.884 522.031 354.514 523.842C353.82 527.237 354.631 531.412 355.244 534.776C355.955 538.68 356.638 542.588 357.308 546.499C358.408 552.924 359.065 559.623 360.919 565.881C361.348 567.33 361.949 568.495 362.736 569.769L363.018 570.217L364.902 572.036C367.537 574.338 371.113 575.436 374.506 575.952C381.127 576.958 388.495 576.252 395.152 575.94C408.918 575.296 422.599 574.121 436.342 573.222C436.767 577.182 438.091 581.347 438.932 585.264C440.863 594.251 442.747 603.101 445.104 611.993L380.53 616.296C372.126 616.884 363.651 616.784 355.23 616.798C355.062 616.798 354.856 616.905 354.726 616.799C354.341 616.483 353.393 613.315 353.006 612.586C351.315 609.393 349.156 606.771 346.44 604.416C345.683 603.76 346.318 602.2 346.471 601.263C347.354 595.859 346.136 590.096 344.461 584.954C339.24 568.919 326.933 555.092 311.88 547.55C302.503 542.852 292.338 540.48 281.896 542.158C277.901 542.8 274.001 544.134 270.168 545.398C264.5 537.436 257.391 529.938 250.462 523.062C241.802 514.468 233.059 506.441 220.689 503.892C216.631 503.055 212.53 502.975 208.403 502.992C207.073 497.483 203.756 488.481 206.541 483.138C207.589 481.129 209.444 479.287 211.684 478.688L214.252 478.227Z"/>
	<path fill="#010918" transform="scale(0.666667 0.666667)" d="M232.883 494.438C233.652 494.338 234.364 494.357 235.125 494.506C236.788 494.833 238.285 496.153 239.167 497.568C239.821 498.616 239.906 500.146 239.572 501.319C239.104 502.959 237.832 503.854 236.438 504.676C235.543 504.935 234.533 504.937 233.625 504.72C232.34 504.413 230.872 503.521 230.253 502.319C229.472 500.804 229.345 498.523 229.95 496.942C230.502 495.499 231.521 494.985 232.883 494.438Z"/>
	<path fill="#BDDDF1" transform="scale(0.666667 0.666667)" d="M138.482 221.779C140.159 221.477 142.288 221.619 144 221.646C160.497 221.9 177.983 229.855 189.39 241.688C207.527 260.501 215.303 290.455 214.72 316.133C214.323 333.623 210.195 350.823 202.377 366.47C199.081 373.066 195.483 379.027 190.079 384.115C179.276 394.287 167.244 396.422 152.906 396.014C138.015 395.624 121.418 388.625 110.109 379.134C93.931 365.556 85.5454 346.05 80.5735 326.006C78.7942 318.833 77.2099 311.413 76.6111 304.034C74.9288 283.302 81.8139 259.364 95.4413 243.485C106.461 230.646 121.667 223.086 138.482 221.779Z"/>
	<path fill="#010918" transform="scale(0.666667 0.666667)" d="M136.673 238.257C150.575 237.045 163.443 240.771 174.386 249.534C189.728 261.818 196.811 281.787 198.991 300.706C201.238 320.202 198.692 345.95 186.03 361.736C178.142 371.57 169.75 375.913 157.356 377.223C145.213 377.551 133.626 373.142 123.939 365.997C107.615 353.957 97.93 333.031 94.9482 313.352C92.049 294.219 94.7699 271.439 106.596 255.575C113.828 245.874 124.81 239.928 136.673 238.257Z"/>
	<path fill="#FF6456" transform="scale(0.666667 0.666667)" d="M136.73 248.718C147.377 247.551 157.165 250.763 165.918 256.758C178.605 265.449 185.252 279.201 187.972 293.991C191.29 312.034 189.805 334.99 179.074 350.436C173.895 357.89 166.976 362.098 158.146 363.733C148.778 364.216 141.446 361.918 133.784 356.523C118.132 345.503 108.511 328.177 105.338 309.509C102.756 294.317 104.272 276.668 113.409 263.799C119.194 255.65 126.832 250.355 136.73 248.718Z"/>
	<path fill="#08CFF2" transform="scale(0.666667 0.666667)" d="M227.016 238.272C220.286 231.378 211.223 224.539 201.889 221.659C198.677 220.668 195.506 220.328 192.175 220.013C193.332 212.178 196.028 204.275 199.167 197.021C212.669 165.808 240.833 142.659 272.034 130.335C284.6 125.371 298.032 122.744 311.438 121.405C344.456 118.106 379.523 122.816 410.041 136.091C425.534 142.83 441.177 153.164 452.062 166.146C456.272 171.166 459.772 176.834 462.833 182.614C466.814 190.13 469.824 198.381 472.93 206.295C469.049 205.501 465.029 205.274 461.096 204.817C448.648 203.368 435.988 202.742 423.469 202.296C405.487 201.656 387.708 201.606 369.726 202.14C334.503 203.187 297.086 206.913 264.871 222.283L264.685 222.035C262.766 218.955 259.561 217.453 256.936 214.953C251.739 219.664 246.864 224.745 242.073 229.864C239.277 232.852 236.209 237.042 232.875 239.335C231.768 238.954 231.361 238.247 230.594 237.38C229.043 237.014 228.428 237.655 227.016 238.272Z"/>
	<path fill="#010918" transform="scale(0.666667 0.666667)" d="M408.822 167.023L413.046 166.771C420.529 166.617 443.562 167.894 448.444 172.965C449.717 174.288 450.512 176.084 450.346 177.938C450.206 179.493 449.122 181.119 447.922 182.072C445.524 183.976 442.159 183.187 439.371 182.855C432.059 182.049 424.772 181.085 417.469 180.213C413.223 179.706 408.97 179.294 404.745 178.626C402.505 178.272 399.882 177.878 397.918 176.648C397.073 176.118 396.196 175.212 396.027 174.188C395.81 172.872 396.023 172.179 396.851 171.184C399.581 167.907 404.887 167.428 408.822 167.023Z"/>
	<defs>
		<linearGradient id="gradient_4" gradientUnits="userSpaceOnUse" x1="249.05701" y1="255.51401" x2="354.629" y2="154.687">
			<stop offset="0" stop-color="black"/>
			<stop offset="1" stop-color="#010B1F"/>
		</linearGradient>
	</defs>
	<path fill="url(#gradient_4)" transform="scale(0.666667 0.666667)" d="M230.594 237.38L231.491 235.876C234.305 231.806 237.926 228.056 241.259 224.416C257.168 207.042 275.512 194.083 297.334 185.123C302.105 183.164 307.165 181.053 312.245 180.077L312.938 179.947C313.397 178.847 312.309 178.85 312.052 177.938C311.916 177.454 311.968 176.938 311.926 176.438C312.329 175.382 312.91 174.671 313.729 173.888C316.207 171.516 319.973 170.55 323.193 169.657C331.08 167.47 339.714 165.802 347.925 165.849C354.009 165.884 360.406 166.856 366.188 168.748C368.408 169.475 370.655 170.306 372.28 172.058C373.331 173.192 373.769 174.232 373.583 175.804C373.428 177.112 372.473 177.819 371.306 178.259C369.972 178.763 368.259 178.71 366.842 178.773C364.191 178.89 361.546 179.047 358.898 179.218C351.703 179.682 344.505 180.188 337.337 180.976C331.991 181.565 326.694 182.462 321.365 183.174C317.726 183.661 314.013 183.885 310.447 184.8C305.296 186.122 300.246 188.474 295.427 190.688C281.76 196.964 268.097 204.789 256.936 214.953C251.739 219.664 246.864 224.745 242.073 229.864C239.277 232.852 236.209 237.042 232.875 239.335C231.768 238.954 231.361 238.247 230.594 237.38Z"/>
	<path fill="white" transform="scale(0.666667 0.666667)" d="M259.887 228.235C264.463 225.087 271.033 223.379 276.305 221.538C289.278 217.008 302.287 213.508 315.882 211.39C349.444 206.163 383.704 206.617 417.562 207.619C436.799 208.188 456.639 208.681 475.593 212.155C482.235 213.373 488.449 214.971 494.288 218.518C498.359 220.991 501.894 224.455 504.764 228.234C506.145 230.053 507.503 232.258 509.188 233.79C512.105 236.443 515.954 238.628 519.164 240.935C527.466 246.899 535.48 253.816 541.295 262.295C553.578 280.208 557.214 306.48 553.192 327.563C550.992 339.092 545.424 350.556 537.61 359.364C536.136 361.025 534.388 363.127 532.485 364.312C531.642 364.837 531.077 364.841 530.163 364.588C529.756 363.726 529.971 363.024 530.166 362.13C530.995 358.323 532.516 354.551 533.641 350.812C535.407 344.942 536.734 339.026 537.541 332.948C541.063 306.441 536.249 266.738 506.946 256.339C494.623 251.966 477.936 254.198 466.392 259.864C454.278 265.811 444.514 277.294 440.28 290.062C435.197 305.391 435.147 322.367 438.463 338.085C436.792 348.667 442.751 360.385 448.86 368.7C449.296 369.292 449.723 369.707 450.294 370.161C456.367 377.828 464.901 382.417 472.875 387.778C476.224 390.029 479.365 392.496 482.899 394.462C480.031 400.137 476.49 402.95 470.505 404.908C464.03 407.026 457.013 408.09 450.315 409.296C432.995 412.414 415.477 414.17 397.947 415.596C381.727 416.917 365.325 417.988 349.051 418.202L333.567 393.13L330.081 393.401L327 394.033C323.603 394.776 320.066 394.406 316.617 394.216C307.909 393.735 299.711 392.706 291.474 389.656C279.641 385.275 269.27 376.363 262.688 365.649C260.636 362.309 259.121 358.742 257.5 355.187L256.806 356.062C255.43 355.803 253.067 355.495 252.021 354.562L251.967 350.861L248.877 366.494C248.768 365.959 248.618 365.122 248.719 364.594C248.811 364.108 249.169 363.528 249.283 363L249.562 361.5L249.75 360.562C250.04 359.719 249.895 359.066 250.125 358.312C250.34 357.607 250.327 357.105 250.5 356.438C250.689 355.708 250.675 354.842 250.875 354.188C251.182 353.182 251.173 353.905 251.175 353.045L251.25 349.5C252.542 347.562 250.932 343.336 251.625 341.062C251.976 339.91 251.917 340.916 251.919 339.744L252 337.688L252.281 337.031C252.142 336.015 252.306 335.064 252.474 334.057L252.562 333.566L252.658 333C253.189 331.667 252.749 333.591 253.031 332.18C253.143 331.622 253.076 331.789 253.26 331.302L253.688 330.191L254.434 330.562L254.441 330C255.06 329.375 254.815 327.728 254.816 326.812L254.441 326.25L254.533 321C254.452 319.739 254.435 318.518 254.441 317.25L254.812 316.793C254.816 315.132 254.938 313.746 255.395 312.146C256.333 302.995 257.568 293.88 260.643 285.157C262.976 278.535 266.307 272.564 270.22 266.757C268.346 263.851 266.936 260.611 265.165 257.623C262.036 252.344 254.896 244.295 254.924 237.875C254.943 233.648 257.033 231.083 259.887 228.235Z"/>
	<path fill="#010918" transform="scale(0.666667 0.666667)" d="M270.22 266.757C280.062 253.308 293.743 244.93 310.277 242.416C327.376 239.815 344.007 245.271 357.721 255.424C374.022 267.492 384.697 285.91 387.649 305.975C391.049 329.083 384.565 352.651 370.661 371.233C361.52 383.449 348.623 390.982 333.567 393.13L330.081 393.401L327 394.033C323.603 394.776 320.066 394.406 316.617 394.216C307.909 393.735 299.711 392.706 291.474 389.656C279.641 385.275 269.27 376.363 262.688 365.649C260.636 362.309 259.121 358.742 257.5 355.187L256.806 356.062C255.43 355.803 253.067 355.495 252.021 354.562L251.967 350.861L248.877 366.494C248.768 365.959 248.618 365.122 248.719 364.594C248.811 364.108 249.169 363.528 249.283 363L249.562 361.5L249.75 360.562C250.04 359.719 249.895 359.066 250.125 358.312C250.34 357.607 250.327 357.105 250.5 356.438C250.689 355.708 250.675 354.842 250.875 354.188C251.182 353.182 251.173 353.905 251.175 353.045L251.25 349.5C252.542 347.562 250.932 343.336 251.625 341.062C251.976 339.91 251.917 340.916 251.919 339.744L252 337.688L252.281 337.031C252.142 336.015 252.306 335.064 252.474 334.057L252.562 333.566L252.658 333C253.189 331.667 252.749 333.591 253.031 332.18C253.143 331.622 253.076 331.789 253.26 331.302L253.688 330.191L254.434 330.562L254.441 330C255.06 329.375 254.815 327.728 254.816 326.812L254.441 326.25L254.533 321C254.452 319.739 254.435 318.518 254.441 317.25L254.812 316.793C254.816 315.132 254.938 313.746 255.395 312.146C256.333 302.995 257.568 293.88 260.643 285.157C262.976 278.535 266.307 272.564 270.22 266.757Z"/>
	<path fill="#51B4DC" transform="scale(0.666667 0.666667)" d="M248.877 366.494C248.768 365.959 248.618 365.122 248.719 364.594C248.811 364.108 249.169 363.528 249.283 363L249.562 361.5L249.75 360.562C250.04 359.719 249.895 359.066 250.125 358.312C250.34 357.607 250.327 357.105 250.5 356.438C250.689 355.708 250.675 354.842 250.875 354.188C251.182 353.182 251.173 353.905 251.175 353.045L251.25 349.5C252.542 347.562 250.932 343.336 251.625 341.062C251.976 339.91 251.917 340.916 251.919 339.744L252 337.688L252.281 337.031C252.142 336.015 252.306 335.064 252.474 334.057L252.562 333.566L252.658 333C253.189 331.667 252.749 333.591 253.031 332.18C253.143 331.622 253.076 331.789 253.26 331.302L253.688 330.191L254.434 330.562L254.441 330C255.06 329.375 254.815 327.728 254.816 326.812L254.441 326.25L254.533 321C254.452 319.739 254.435 318.518 254.441 317.25L254.812 316.793C254.816 315.132 254.938 313.746 255.395 312.146C255.368 317.802 255.186 323.522 255.777 329.156C257.463 345.238 263.906 361.158 275.397 372.703C286.283 383.641 302.031 389.773 317.062 392.225C321.388 392.931 325.739 392.948 330.081 393.401L327 394.033C323.603 394.776 320.066 394.406 316.617 394.216C307.909 393.735 299.711 392.706 291.474 389.656C279.641 385.275 269.27 376.363 262.688 365.649C260.636 362.309 259.121 358.742 257.5 355.187L256.806 356.062C255.43 355.803 253.067 355.495 252.021 354.562L251.967 350.861L248.877 366.494Z"/>
	<path fill="white" transform="scale(0.666667 0.666667)" d="M251.967 350.861C252.223 345.59 252.271 340.194 253.114 334.981C253.293 333.873 253.339 332.471 254.193 331.68C254.952 332.403 254.706 336.059 254.748 337.254C254.868 340.713 255.06 344.193 255.532 347.624C255.88 350.146 256.53 352.828 257.5 355.187L256.806 356.062C255.43 355.803 253.067 355.495 252.021 354.562L251.967 350.861Z"/>
	<path fill="#10DBFA" transform="scale(0.666667 0.666667)" d="M320.091 249.53C320.504 249.47 320.298 249.49 320.845 249.474C324.018 249.383 327.227 249.302 330.375 249.776C341.348 251.429 351.725 257.506 359.666 265.073C373.453 278.209 380.64 298.253 380.997 317.066C381.345 335.405 375.525 356.128 362.438 369.531C354.39 377.774 343.979 383.419 332.239 383.44C321.568 383.459 312.335 378.043 304.95 370.74C290.329 356.28 283.589 339.038 283.52 318.535C283.465 302.049 288.814 286.97 300.492 275.174C306.227 269.625 312.563 265.928 320.288 263.947C324.145 262.958 327.947 262.341 331.706 260.955L331.632 260.639C330.645 259.928 329.269 258.689 328.109 258.455C326.177 258.064 323.563 258.283 321.599 258.483C313.427 259.317 304.994 262.828 298.335 267.568C286.987 275.646 278.939 290.959 276.763 304.554C273.188 326.881 278.751 348.801 292.042 366.961C291.229 366.784 290.402 366.029 289.768 365.504C277.23 355.12 269.782 341.054 268.375 324.808C266.553 303.763 272.292 282.385 286.124 266.182C295.031 255.749 306.574 250.576 320.091 249.53Z"/>
	<path fill="#010918" transform="scale(0.666667 0.666667)" d="M327.16 271.261C334.667 269.921 344.561 272.613 350.869 276.72C361.077 283.366 367.065 293.739 369.489 305.487C372.746 321.273 371.134 340.87 361.985 354.492C355.545 364.08 347.055 370.199 335.719 372.365C327.175 373.278 318.625 370.923 311.826 365.608C299.941 356.318 293.082 342.691 291.327 327.797C289.636 313.444 293.021 297.03 302.206 285.611C308.657 277.591 316.844 272.416 327.16 271.261Z"/>
	<path fill="#0B497D" transform="scale(0.666667 0.666667)" d="M347.802 341.812L348.401 341.906C349.082 343.246 348.616 345.718 348.558 347.26C339.681 347.353 330.803 347.442 321.926 347.501C317.624 347.53 312.665 348.032 308.438 347.31C308.071 347.106 307.727 346.808 307.39 346.557C307.059 345.355 306.847 344.427 306.938 343.177C308.235 342.581 309.986 342.803 311.412 342.778C314.795 342.72 318.179 342.683 321.562 342.62C330.31 342.458 339.058 342.113 347.802 341.812Z"/>
	<path fill="#0B497D" transform="scale(0.666667 0.666667)" d="M353.235 327.534L357.46 327.39L357.733 333.394L306.901 334.438L302.224 334.353C301.925 332.763 301.881 331.147 301.788 329.535L353.235 327.534Z"/>
	<path fill="white" transform="scale(0.666667 0.666667)" d="M331.956 290.712C334.08 290.637 336.339 291.25 338.229 292.211C341.133 293.687 343.756 296.59 344.613 299.769C345.514 303.11 344.807 306.926 342.978 309.835C340.661 313.519 336.949 315.358 332.876 316.347C330.457 316.481 328.431 316.354 326.204 315.236C323.172 313.713 320.842 310.838 319.932 307.57C318.962 304.085 319.478 300.001 321.416 296.952C323.881 293.073 327.65 291.579 331.956 290.712Z"/>
	<path fill="#9B5479" transform="scale(0.666667 0.666667)" d="M561.141 431.188C564.522 429.315 567.687 428.288 571.521 427.757C586.52 425.677 601.949 425.151 617.062 424.276C641.029 422.887 664.987 421.492 688.961 420.223C695.241 419.89 701.538 419.52 707.812 419.088C712.121 418.791 717.874 417.722 722.04 418.792C723.568 419.184 725.401 420.387 726.188 421.785C726.867 422.993 727.167 424.459 727.063 425.835C726.555 432.55 723.979 439.356 722.207 445.833C719.071 457.294 715.993 468.765 712.452 480.111C708.583 492.51 705.142 504.992 701.488 517.453C693.622 544.275 685.777 571.158 677.683 597.912C674.467 608.542 671.088 619.098 667.662 629.663C665.561 636.14 663.758 643.02 660.727 649.138C658.867 652.893 656.221 655.831 652.5 657.763C650.232 658.94 647.718 659.739 645.234 660.326C633.897 663.004 622.298 664.696 610.862 666.918C591.918 670.597 573.045 674.541 554.062 678.021C538.675 680.843 523.33 683.881 507.908 686.518C502.402 687.46 496.891 688.651 491.349 689.34C489.964 689.513 488.66 689.636 487.306 689.19C486.893 689.054 486.851 689.003 486.412 688.771C484.98 688.564 483.047 686.956 482.216 685.841C481.352 684.682 481.027 683.645 481.256 682.207C482.33 675.461 486.016 668.374 488.234 661.875C493.224 647.259 498.065 632.453 502.324 617.61C505.583 606.252 508.365 594.753 511.532 583.365C519.603 554.348 527.874 525.396 536.102 496.426C538.898 486.579 541.669 476.714 544.409 466.852C546.204 460.392 547.748 453.822 550.07 447.524C552.557 440.776 555.337 435.578 561.141 431.188Z"/>
	<path fill="#E45F71" transform="scale(0.666667 0.666667)" d="M561.141 431.188C562.026 431.145 563.414 430.854 564.188 431.25L563.847 431.625C563.725 433.367 561.426 435.211 560.252 436.551C559.231 437.716 558.304 439.079 557.555 440.438C554.763 445.503 553.222 451.769 551.564 457.303C546.619 473.803 542.297 490.468 537.48 507C532.195 525.134 526.64 543.241 521.778 561.492C517.242 578.524 513.519 595.75 508.753 612.723C506.796 619.693 504.368 626.521 502.262 633.446C500.45 639.408 498.972 645.458 497.135 651.416C495.58 656.461 494.095 661.526 492.542 666.571C490.473 673.287 488.549 679.589 488.187 686.631C488.16 687.146 488.153 686.994 487.875 687.562L487.5 686.438L487.875 685.875C487.875 684.021 487.587 681.911 488.25 680.25L488.344 679.219L488.625 678.562C489.703 674.405 490.626 670.32 492.006 666.182C492.385 665.043 492.443 664.696 492.029 663.533L492.041 664.018L491.85 664.85L491.07 665.047L490.292 663.987C489.647 664.356 489.115 664.792 488.504 665.209C487.451 665.928 487.289 666.412 486.972 667.606L482.878 678.685C482.362 680.436 481.305 682.871 482.243 684.623C482.601 685.291 483.266 685.825 483.804 686.344L484.187 686.722C484.617 687.128 484.491 686.984 485.121 687.375L485.423 687.573L487.125 688.5L487.133 688.672L486.412 688.771C484.98 688.564 483.047 686.956 482.216 685.841C481.352 684.682 481.027 683.645 481.256 682.207C482.33 675.461 486.016 668.374 488.234 661.875C493.224 647.259 498.065 632.453 502.324 617.61C505.583 606.252 508.365 594.753 511.532 583.365C519.603 554.348 527.874 525.396 536.102 496.426C538.898 486.579 541.669 476.714 544.409 466.852C546.204 460.392 547.748 453.822 550.07 447.524C552.557 440.776 555.337 435.578 561.141 431.188Z"/>
	<path fill="#010918" transform="scale(0.666667 0.666667)" d="M622.681 529.545C627.424 529.174 631.742 529.587 635.772 532.312C639.945 535.134 642.507 539.572 643.434 544.475C644.656 550.938 643.557 557.804 639.741 563.25C635.882 568.757 630.768 571.317 624.25 572.486C619.807 572.853 615.408 572.55 611.438 570.319C607.542 568.131 604.778 563.7 603.744 559.397C602.12 552.643 603.255 545.203 607.095 539.392C610.867 533.682 616.124 530.863 622.681 529.545Z"/>
	<path fill="white" transform="scale(0.666667 0.666667)" d="M622.875 532.572C627.05 532.282 631.058 532.368 634.655 534.816C637.989 537.084 639.843 540.77 640.567 544.654C641.631 550.372 640.666 556.831 637.26 561.609C633.829 566.422 629.876 568.527 624.033 569.447C620.285 569.645 616.278 569.659 612.938 567.677C609.461 565.614 607.372 561.937 606.486 558.095C605.174 552.415 606.531 546.111 609.626 541.244C612.785 536.278 617.284 533.887 622.875 532.572Z"/>
</svg>
